<svg preserveAspectRatio="none" overflow="visible" style="display: block;" width="15.3388" height="15.6194" viewBox="0 0 15.3388 15.6194" fill="none" xmlns="http://www.w3.org/2000/svg">
<g id="Group">
<path id="Acorn-cap" d="M0.253013 6.63571C-0.323549 5.96305 0.156919 4.61774 0.973716 3.60875C1.64637 2.79196 2.51122 2.26344 3.37606 1.87907L2.75145 0.966176C2.36708 0.485708 3.80848 -0.0428079 4.2409 0.00523896C4.62528 -0.0428079 4.67333 0.245474 4.76942 0.629849L5.10575 1.44665C7.12372 1.01422 9.33387 2.07125 9.86239 3.27243C10.0065 3.56071 9.86239 3.70485 9.62215 3.60875C6.73934 3.41657 3.23192 4.61774 0.541294 6.53961C0.397154 6.68376 0.30106 6.7318 0.253013 6.63571Z" fill="#DEB27B"/>
<path id="Squirrel" d="M0.733482 7.26032C3.32801 5.62672 7.3159 4.13727 9.52606 4.23336C10.1026 4.23336 10.2948 4.42555 10.3429 5.00211C10.6311 6.44352 9.28583 7.74079 8.32489 9.0861C7.17176 10.6716 7.17176 12.1611 8.70926 13.3142C8.03661 12.017 8.32489 10.8638 9.38192 10.0951C10.3429 9.42243 11.2077 8.79782 11.6401 7.74079C11.496 7.16422 11.6882 6.44352 11.9284 6.05915C12.0245 5.81891 12.2167 5.86696 12.505 6.15524C12.9374 6.53961 13.2257 7.02008 13.4179 7.4525C14.2827 7.83688 15.0515 8.55758 15.2917 9.13415C15.5319 9.71071 14.8112 9.90289 14.0905 10.2392C13.3218 10.6236 13.1776 11.5845 13.0335 12.4974C12.6972 14.5634 11.2077 15.4283 9.38192 15.5724C6.45106 15.8607 3.90458 14.8037 2.27098 12.8818C0.877623 11.2482 0.445201 9.66266 0.445201 8.2693C0.445201 7.78883 0.493248 7.50055 0.733482 7.26032Z" fill="#AB5F40"/>
</g>
</svg>
